<mxfile host="app.diagrams.net" modified="2024-02-27T13:11:32.699Z" agent="Mozilla/5.0 (Macintosh; Intel Mac OS X 10_15_7) AppleWebKit/537.36 (KHTML, like Gecko) Chrome/122.0.0.0 Safari/537.36" version="23.1.7" etag="vyf3OTWoP6t_SxIJm0cW" type="github">
  <diagram name="Page-1" id="hu9E6X41t0wCt8otgNrs">
    <mxGraphModel>
      <root>
        <mxCell id="0" />
        <mxCell id="1" parent="0" />
      </root>
    </mxGraphModel>
  </diagram>
</mxfile>
